<?xml version="1.0" encoding="UTF-8" standalone="no"?>
<svg
   xmlns:dc="http://purl.org/dc/elements/1.1/"
   xmlns:cc="http://creativecommons.org/ns#"
   xmlns:rdf="http://www.w3.org/1999/02/22-rdf-syntax-ns#"
   xmlns:svg="http://www.w3.org/2000/svg"
   xmlns="http://www.w3.org/2000/svg"
   xmlns:sodipodi="http://sodipodi.sourceforge.net/DTD/sodipodi-0.dtd"
   xmlns:inkscape="http://www.inkscape.org/namespaces/inkscape"
   aria-hidden="true"
   focusable="false"
   data-prefix="far"
   data-icon="comment-alt"
   class="svg-inline--fa fa-comment-alt fa-w-16"
   role="img"
   viewBox="0 0 512 512"
   id="svg2"
   version="1.1"
   inkscape:version="0.48.0 r9654"
   width="100%"
   height="100%"
   sodipodi:docname="comment-alt-regular.svg">
  <metadata
     id="metadata10">
    <rdf:RDF>
      <cc:Work
         rdf:about="">
        <dc:format>image/svg+xml</dc:format>
        <dc:type
           rdf:resource="http://purl.org/dc/dcmitype/StillImage" />
      </cc:Work>
    </rdf:RDF>
  </metadata>
  <defs
     id="defs8" />
  <sodipodi:namedview
     pagecolor="#ffffff"
     bordercolor="#666666"
     borderopacity="1"
     objecttolerance="10"
     gridtolerance="10"
     guidetolerance="10"
     inkscape:pageopacity="0"
     inkscape:pageshadow="2"
     inkscape:window-width="1366"
     inkscape:window-height="705"
     id="namedview6"
     showgrid="false"
     inkscape:zoom="0.80378154"
     inkscape:cx="327.49502"
     inkscape:cy="295.52286"
     inkscape:window-x="-8"
     inkscape:window-y="-8"
     inkscape:window-maximized="1"
     inkscape:current-layer="svg2" />
  <path
     d="M 448,0 64,0 C 28.7,0 0,28.7 0,64 l 0,288 c 0,35.3 28.7,64 64,64 l 96,0 0,84 c 0,7.1 5.8,12 12,12 2.4,0 4.9,-0.7 7.1,-2.4 L 304,416 l 144,0 c 35.3,0 64,-28.7 64,-64 L 512,64 C 512,28.7 483.3,0 448,0 z m 42.39175,352.87973 c -0.13563,8.79895 -4.89656,43.01147 -31.83505,42.39175 l -152.9622,-3.5189 -21.59725,12.23917 -108.54708,81.19038 1.75945,-82.87285 L 59.601375,399.6701 C 26.803129,398.9341 12.959032,371.73031 13.250859,350.24055 L 17.209622,58.721649 C 17.682286,23.915199 56.079748,17.189645 64.879725,17.209622 l 387.518905,0.879725 c 8.79997,0.01998 42.93116,14.434914 42.39175,49.429553 z"
     id="path4"
     inkscape:connector-curvature="0"
     style="fill:currentColor"
     sodipodi:nodetypes="ssssscssccssssssccccsssssss" />
</svg>
