<?xml version="1.0" encoding="UTF-8" standalone="no"?>
<!-- Created with Inkscape (http://www.inkscape.org/) -->

<svg
   xmlns:dc="http://purl.org/dc/elements/1.1/"
   xmlns:cc="http://creativecommons.org/ns#"
   xmlns:rdf="http://www.w3.org/1999/02/22-rdf-syntax-ns#"
   xmlns:svg="http://www.w3.org/2000/svg"
   xmlns="http://www.w3.org/2000/svg"
   xmlns:sodipodi="http://sodipodi.sourceforge.net/DTD/sodipodi-0.dtd"
   xmlns:inkscape="http://www.inkscape.org/namespaces/inkscape"
   id="svg2"
   version="1.1"
   inkscape:version="0.48.0 r9654"
   width="466.66"
   height="233.59384"
   xml:space="preserve"
   sodipodi:docname="reviewsIntro.eps"><metadata
     id="metadata8"><rdf:RDF><cc:Work
         rdf:about=""><dc:format>image/svg+xml</dc:format><dc:type
           rdf:resource="http://purl.org/dc/dcmitype/StillImage" /><dc:title></dc:title></cc:Work></rdf:RDF></metadata><defs
     id="defs6" /><sodipodi:namedview
     pagecolor="#ffffff"
     bordercolor="#666666"
     borderopacity="1"
     objecttolerance="10"
     gridtolerance="10"
     guidetolerance="10"
     inkscape:pageopacity="0"
     inkscape:pageshadow="2"
     inkscape:window-width="1366"
     inkscape:window-height="705"
     id="namedview4"
     showgrid="false"
     fit-margin-top="0"
     fit-margin-left="0"
     fit-margin-right="0"
     fit-margin-bottom="0"
     inkscape:zoom="0.27648456"
     inkscape:cx="371.875"
     inkscape:cy="526.24854"
     inkscape:window-x="-8"
     inkscape:window-y="-8"
     inkscape:window-maximized="1"
     inkscape:current-layer="g12" /><g
     id="g10"
     inkscape:groupmode="layer"
     inkscape:label="ink_ext_XXXXXX"
     transform="matrix(1.25,0,0,-1.25,0,233.59531)"><g
       id="g12"
       transform="scale(0.1,0.1)"><path
         d="m 0,0.0117188 3733.28,0 0,915.0000012 -3733.28,0 L 0,0.0117188 z"
         style="fill:#f2f2f2;fill-opacity:1;fill-rule:nonzero;stroke:none"
         id="path14"
         inkscape:connector-curvature="0" /><path
         d="m 3425.86,1301.97 c 91.8,0 166.25,75.66 166.25,169.06 0,93.36 -74.45,169.02 -166.25,169.02 -91.84,0 -166.25,-75.66 -166.25,-169.02 0,-93.4 74.41,-169.06 166.25,-169.06 z m 116.37,-42.27 -21.72,0 c -28.83,-13.48 -60.9,-21.13 -94.65,-21.13 -33.79,0 -65.74,7.65 -94.69,21.13 l -21.72,0 c -96.36,0 -174.53,-79.49 -174.53,-177.5 l 0,-54.92 c 0,-34.999 27.93,-63.401 62.35,-63.401 l 457.18,0 c 34.42,0 62.31,28.402 62.31,63.401 l 0,54.92 c 0,98.01 -78.17,177.5 -174.53,177.5 z"
         style="fill:#000000;fill-opacity:1;fill-rule:nonzero;stroke:none"
         id="path16"
         inkscape:connector-curvature="0" /><path
         d="m 3550.35,289.5 c -37.26,0 -55.19,-21.129 -116.37,-21.129 -61.17,0 -78.98,21.129 -116.36,21.129 -96.37,0 -174.57,-79.488 -174.57,-177.5 l 0,-33.8203 c 0,-35 27.93,-63.3594 62.34,-63.3594 l 457.19,0 c 34.41,0 62.34,28.3594 62.34,63.3594 l 0,33.8203 c 0,98.012 -78.2,177.5 -174.57,177.5 z m 112.23,-211.3203 -457.19,0 0,33.8203 c 0,62.859 50.39,114.109 112.23,114.109 18.94,0 49.72,-21.14 116.36,-21.14 67.15,0 97.27,21.14 116.37,21.14 61.84,0 112.23,-51.25 112.23,-114.109 l 0,-33.8203 z m -228.6,232.4613 c 103.25,0 187.04,85.148 187.04,190.148 0,105 -83.79,190.199 -187.04,190.199 -103.24,0 -187.03,-85.199 -187.03,-190.199 0,-105 83.79,-190.148 187.03,-190.148 z m 0,316.949 c 68.72,0 124.69,-56.91 124.69,-126.801 0,-69.84 -55.97,-126.75 -124.69,-126.75 -68.71,0 -124.68,56.91 -124.68,126.75 0,69.891 55.97,126.801 124.68,126.801 z"
         style="fill:#000000;fill-opacity:1;fill-rule:nonzero;stroke:none"
         id="path18"
         inkscape:connector-curvature="0" /><g
         id="g20"
         transform="scale(10,10)"><text
           transform="matrix(0.975001,0,0,-1,3.75586,176.489)"
           id="text22"><tspan
             style="font-size:12.96310043px;font-variant:normal;writing-mode:lr-tb;fill:#000000;fill-opacity:1;fill-rule:nonzero;stroke:none;font-family:f-0;-inkscape-font-specification:f-0-0"
             x="0"
             y="0"
             id="tspan24">U</tspan></text>
<text
           transform="matrix(0.975001,0,0,-1,12.8895,173.896)"
           id="text26"><tspan
             style="font-size:9.72229004px;font-variant:normal;writing-mode:lr-tb;fill:#000000;fill-opacity:1;fill-rule:nonzero;stroke:none;font-family:f-0;-inkscape-font-specification:f-0-0"
             x="0"
             y="0"
             id="tspan28">1</tspan></text>
<text
           transform="matrix(0.975001,0,0,-1,21.679652,176.489)"
           id="text30"><tspan
             style="font-size:12.96310043px;font-variant:normal;writing-mode:lr-tb;fill:#000000;fill-opacity:1;fill-rule:nonzero;stroke:none;font-family:f-0;-inkscape-font-specification:f-0-0"
             x="0 6.4815502 13.689034 24.500191 35.311417 42.518902"
             y="0"
             sodipodi:role="line"
             id="tspan32">common</tspan><tspan
             style="font-size:12.96310043px;font-variant:normal;writing-mode:lr-tb;fill:#000000;fill-opacity:1;fill-rule:nonzero;stroke:none;font-family:f-0;-inkscape-font-specification:f-0-0"
             x="-1.6257818 7.7335763 14.95384 19.283476 26.490959"
             y="16.203899"
             sodipodi:role="line"
             id="tspan34">words</tspan><tspan
             style="font-size:12.96310043px;font-variant:normal;writing-mode:lr-tb;fill:#000000;fill-opacity:1;fill-rule:nonzero;stroke:none;font-family:f-0;-inkscape-font-specification:f-0-0"
             x="-1.9999799 4.4815702 11.689054 18.90958 26.117064"
             y="38.409401"
             sodipodi:role="line"
             id="tspan36">cheap</tspan><tspan
             style="font-size:12.96310043px;font-variant:normal;writing-mode:lr-tb;fill:#000000;fill-opacity:1;fill-rule:nonzero;stroke:none;font-family:f-0;-inkscape-font-specification:f-0-0"
             x="3.7436001 10.22515 17.432634 21.762398"
             y="59.2094"
             sodipodi:role="line"
             id="tspan38">very</tspan><tspan
             style="font-size:12.96310043px;font-variant:normal;writing-mode:lr-tb;fill:#000000;fill-opacity:1;fill-rule:nonzero;stroke:none;font-family:f-0;-inkscape-font-specification:f-0-0"
             x="-18.2728"
             y="94.716797"
             id="tspan40">U</tspan></text>
<text
           transform="matrix(0.975001,0,0,-1,12.9973,79.1801)"
           id="text42"><tspan
             style="font-size:9.72229004px;font-variant:normal;writing-mode:lr-tb;fill:#000000;fill-opacity:1;fill-rule:nonzero;stroke:none;font-family:f-0;-inkscape-font-specification:f-0-0"
             x="0 5.4055934"
             y="0"
             sodipodi:role="line"
             id="tspan44">2 </tspan></text>
<text
           transform="matrix(0.975001,0,0,-1,20.9027,81.7727)"
           id="text46"><tspan
             style="font-size:12.96310043px;font-variant:normal;writing-mode:lr-tb;fill:#000000;fill-opacity:1;fill-rule:nonzero;stroke:none;font-family:f-0;-inkscape-font-specification:f-0-0"
             x="0 6.4815502 13.689034 24.500385 35.311611 42.532009 49.739494"
             y="0"
             sodipodi:role="line"
             id="tspan48">common </tspan><tspan
             style="font-size:12.96310043px;font-variant:normal;writing-mode:lr-tb;fill:#000000;fill-opacity:1;fill-rule:nonzero;stroke:none;font-family:f-0;-inkscape-font-specification:f-0-0"
             x="-1.16787 8.1914883 15.411752 19.741388 26.948872"
             y="16.203899"
             sodipodi:role="line"
             id="tspan50">words</tspan><tspan
             style="font-size:12.96310043px;font-variant:normal;writing-mode:lr-tb;fill:#000000;fill-opacity:1;fill-rule:nonzero;stroke:none;font-family:f-0;-inkscape-font-specification:f-0-0"
             x="-15.15187 -8.6703196 -1.4628364 5.75769 9.3484173 16.568815 20.898451 24.48918 31.709578 38.917061 41.808014"
             y="41.292599"
             sodipodi:role="line"
             id="tspan52">confortable</tspan><tspan
             style="font-size:12.96310043px;font-variant:normal;writing-mode:lr-tb;fill:#000000;fill-opacity:1;fill-rule:nonzero;stroke:none;font-family:f-0;-inkscape-font-specification:f-0-0"
             x="1.36813 12.179356 19.386839 25.868389"
             y="59.200001"
             sodipodi:role="line"
             id="tspan54">most</tspan></text>
</g><path
         d="m 41.6797,127.863 675,0 0,500.941 -675,0 0,-500.941 z"
         style="fill:none;stroke:#010000;stroke-width:7.77034998;stroke-linecap:butt;stroke-linejoin:miter;stroke-miterlimit:4;stroke-opacity:1;stroke-dasharray:none"
         id="path56"
         inkscape:connector-curvature="0" /><path
         d="m 1763.32,1082.47 546.02,0.78"
         style="fill:#999999;fill-opacity:1;fill-rule:nonzero;stroke:none"
         id="path58"
         inkscape:connector-curvature="0" /><path
         d="m 1763.32,1082.47 546.02,0.78"
         style="fill:none;stroke:#999999;stroke-width:14.17319965;stroke-linecap:butt;stroke-linejoin:miter;stroke-miterlimit:4;stroke-opacity:1;stroke-dasharray:none"
         id="path60"
         inkscape:connector-curvature="0" /><path
         d="m 2157.7,1145.91 170.43,-62.38 -170.24,-62.89 c 27.15,37.03 26.91,87.61 -0.19,125.27 z"
         style="fill:#000000;fill-opacity:1;fill-rule:evenodd;stroke:none"
         id="path62"
         inkscape:connector-curvature="0" /><path
         d="m 2157.7,1145.91 170.43,-62.38 -170.24,-62.9 c 27.15,37.04 26.91,87.62 -0.19,125.28 z"
         style="fill:none;stroke:#000000;stroke-width:9.74409008;stroke-linecap:butt;stroke-linejoin:round;stroke-miterlimit:4;stroke-opacity:1;stroke-dasharray:none"
         id="path64"
         inkscape:connector-curvature="0" /><path
         d="M 1763.36,675.363 2317.3,535.992"
         style="fill:none;stroke:#000000;stroke-width:14.17319965;stroke-linecap:butt;stroke-linejoin:miter;stroke-miterlimit:4;stroke-opacity:1;stroke-dasharray:none"
         id="path66"
         inkscape:connector-curvature="0" /><path
         d="m 2185.7,633.961 149.93,-102.313 -180.51,-19.179 c 35.43,29.222 47.61,78.32 30.58,121.492 z"
         style="fill:#000000;fill-opacity:1;fill-rule:evenodd;stroke:none"
         id="path68"
         inkscape:connector-curvature="0" /><path
         d="m 2185.7,633.957 149.92,-102.305 -180.51,-19.179 c 35.44,29.215 47.62,78.324 30.59,121.484 z"
         style="fill:none;stroke:#000000;stroke-width:9.74409008;stroke-linecap:butt;stroke-linejoin:round;stroke-miterlimit:4;stroke-opacity:1;stroke-dasharray:none"
         id="path70"
         inkscape:connector-curvature="0" /><g
         id="g72"
         transform="scale(10,10)"><text
           transform="matrix(0.975001,0,0,-1,228.337,177.597)"
           id="text74"><tspan
             style="font-size:12.96310043px;font-variant:normal;writing-mode:lr-tb;fill:#000000;fill-opacity:1;fill-rule:nonzero;stroke:none;font-family:f-0;-inkscape-font-specification:f-0-0"
             x="0"
             y="0"
             id="tspan76">U</tspan></text>
<text
           transform="matrix(0.975001,0,0,-1,237.47,175.004)"
           id="text78"><tspan
             style="font-size:9.72229004px;font-variant:normal;writing-mode:lr-tb;fill:#000000;fill-opacity:1;fill-rule:nonzero;stroke:none;font-family:f-0;-inkscape-font-specification:f-0-0"
             x="0"
             y="0"
             id="tspan80">1</tspan></text>
<text
           transform="matrix(0.975001,0,0,-1,246.26065,177.597)"
           id="text82"><tspan
             style="font-size:12.96310043px;font-variant:normal;writing-mode:lr-tb;fill:#000000;fill-opacity:1;fill-rule:nonzero;stroke:none;font-family:f-0;-inkscape-font-specification:f-0-0"
             x="0 7.2074838 14.414968 18.7446 25.226151 32.446579 39.654064 46.874542 49.75235 52.643028 59.12458 66.332062"
             y="0"
             sodipodi:role="line"
             id="tspan84">personalized</tspan><tspan
             style="font-size:12.96310043px;font-variant:normal;writing-mode:lr-tb;fill:#000000;fill-opacity:1;fill-rule:nonzero;stroke:none;font-family:f-0;-inkscape-font-specification:f-0-0"
             x="14.970358 19.299992 26.507475 33.727955"
             y="16.203501"
             sodipodi:role="line"
             id="tspan86">rank</tspan></text>
<text
           transform="matrix(0.975001,0,0,-1,259.237,138.336)"
           id="text88"><tspan
             style="font-size:18.70770073px;font-variant:normal;writing-mode:lr-tb;fill:#000000;fill-opacity:1;fill-rule:nonzero;stroke:none;font-family:f-0;-inkscape-font-specification:f-0-0"
             x="0"
             y="0"
             id="tspan90">p</tspan></text>
<text
           transform="matrix(0.975001,0,0,-1,269.96201,134.39733)"
           id="text92"><tspan
             style="font-size:12.30770016px;font-variant:normal;writing-mode:lr-tb;fill:#000000;fill-opacity:1;fill-rule:nonzero;stroke:none;font-family:f-0;-inkscape-font-specification:f-0-0"
             x="0"
             y="0"
             id="tspan94">3</tspan></text>
<text
           transform="matrix(0.975001,0,0,-1,260.19874,110.26763)"
           id="text96"><tspan
             style="font-size:18.70770073px;font-variant:normal;writing-mode:lr-tb;fill:#000000;fill-opacity:1;fill-rule:nonzero;stroke:none;font-family:f-0;-inkscape-font-specification:f-0-0"
             x="0"
             y="0"
             id="tspan98">p</tspan></text>
<text
           transform="matrix(0.975001,0,0,-1,272.84441,106.32935)"
           id="text100"><tspan
             style="font-size:12.30770016px;font-variant:normal;writing-mode:lr-tb;fill:#000000;fill-opacity:1;fill-rule:nonzero;stroke:none;font-family:f-0;-inkscape-font-specification:f-0-0"
             x="0"
             y="0"
             id="tspan102">1</tspan></text>
</g><path
         d="m 2373.28,972.781 675,0 0,600 -675,0 0,-600 z"
         style="fill:none;stroke:#010000;stroke-width:8.50393963;stroke-linecap:butt;stroke-linejoin:miter;stroke-miterlimit:4;stroke-opacity:1;stroke-dasharray:none"
         id="path104"
         inkscape:connector-curvature="0" /><g
         id="g106"
         transform="scale(10,10)"><text
           transform="matrix(0.975001,0,0,-1,228.029,82.9418)"
           id="text108"><tspan
             style="font-size:12.96310043px;font-variant:normal;writing-mode:lr-tb;fill:#000000;fill-opacity:1;fill-rule:nonzero;stroke:none;font-family:f-0;-inkscape-font-specification:f-0-0"
             x="0"
             y="0"
             id="tspan110">U</tspan></text>
<text
           transform="matrix(0.975001,0,0,-1,237.163,80.3492)"
           id="text112"><tspan
             style="font-size:9.72229004px;font-variant:normal;writing-mode:lr-tb;fill:#000000;fill-opacity:1;fill-rule:nonzero;stroke:none;font-family:f-0;-inkscape-font-specification:f-0-0"
             x="0"
             y="0"
             id="tspan114">2</tspan></text>
<text
           transform="matrix(0.975001,0,0,-1,245.95265,82.9418)"
           id="text116"><tspan
             style="font-size:12.96310043px;font-variant:normal;writing-mode:lr-tb;fill:#000000;fill-opacity:1;fill-rule:nonzero;stroke:none;font-family:f-0;-inkscape-font-specification:f-0-0"
             x="0 7.2074838 14.414968 18.7446 25.226151 32.446579 39.654064 46.874542 49.75235 52.643028 59.12458 66.332062"
             y="0"
             sodipodi:role="line"
             id="tspan118">personalized</tspan><tspan
             style="font-size:12.96310043px;font-variant:normal;writing-mode:lr-tb;fill:#000000;fill-opacity:1;fill-rule:nonzero;stroke:none;font-family:f-0;-inkscape-font-specification:f-0-0"
             x="14.970358 19.299992 26.507475 33.727955"
             y="16.203899"
             sodipodi:role="line"
             id="tspan120">rank</tspan></text>
<text
           transform="matrix(0.975001,0,0,-1,258.93,45.2801)"
           id="text122"><tspan
             style="font-size:18.70770073px;font-variant:normal;writing-mode:lr-tb;fill:#000000;fill-opacity:1;fill-rule:nonzero;stroke:none;font-family:f-0;-inkscape-font-specification:f-0-0"
             x="0"
             y="0"
             id="tspan124">p</tspan></text>
<text
           transform="matrix(0.975001,0,0,-1,269.65501,41.34182)"
           id="text126"><tspan
             style="font-size:12.30770016px;font-variant:normal;writing-mode:lr-tb;fill:#000000;fill-opacity:1;fill-rule:nonzero;stroke:none;font-family:f-0;-inkscape-font-specification:f-0-0"
             x="0"
             y="0"
             id="tspan128">1</tspan></text>
<text
           transform="matrix(0.975001,0,0,-1,259.89174,17.21212)"
           id="text130"><tspan
             style="font-size:18.70770073px;font-variant:normal;writing-mode:lr-tb;fill:#000000;fill-opacity:1;fill-rule:nonzero;stroke:none;font-family:f-0;-inkscape-font-specification:f-0-0"
             x="0"
             y="0"
             id="tspan132">p</tspan></text>
<text
           transform="matrix(0.975001,0,0,-1,272.53741,13.27345)"
           id="text134"><tspan
             style="font-size:12.30770016px;font-variant:normal;writing-mode:lr-tb;fill:#000000;fill-opacity:1;fill-rule:nonzero;stroke:none;font-family:f-0;-inkscape-font-specification:f-0-0"
             x="0"
             y="0"
             id="tspan136">3</tspan></text>
</g><path
         d="m 2370.23,26.2617 675,0 0,600 -675,0 0,-600 z"
         style="fill:none;stroke:#010000;stroke-width:8.50393963;stroke-linecap:butt;stroke-linejoin:miter;stroke-miterlimit:4;stroke-opacity:1;stroke-dasharray:none"
         id="path138"
         inkscape:connector-curvature="0" /><path
         d="m 1741.29,1188.8 c 0,-44.18 -125.35,-80 -280,-80 -154.65,0 -280,35.82 -280,80 0,44.18 125.35,80 280,80 154.65,0 280,-35.82 280,-80 z"
         style="fill:#333333;fill-opacity:1;fill-rule:nonzero;stroke:none"
         id="path140"
         inkscape:connector-curvature="0" /><path
         d="m 1181.29,628.801 560,0 0,560 -560,0 0,-560 z"
         style="fill:#ffffff;fill-opacity:1;fill-rule:nonzero;stroke:none"
         id="path142"
         inkscape:connector-curvature="0" /><g
         id="g144"
         transform="scale(1.07692,-0.923077)"><path
           d="m 1096.91,-1287.87 0,606.669 0,0"
           style="fill:none;stroke:#000000;stroke-width:8.66666031;stroke-linecap:butt;stroke-linejoin:miter;stroke-miterlimit:4;stroke-opacity:1;stroke-dasharray:none"
           id="path146"
           inkscape:connector-curvature="0" /></g><g
         id="g148"
         transform="scale(1.07692,-0.923077)"><path
           d="m 1616.91,-1287.87 0,606.669"
           style="fill:none;stroke:#000000;stroke-width:8.66666031;stroke-linecap:butt;stroke-linejoin:miter;stroke-miterlimit:4;stroke-opacity:1;stroke-dasharray:none"
           id="path150"
           inkscape:connector-curvature="0" /></g><path
         d="m 1741.29,628.801 c 0,-44.18 -125.35,-80 -280,-80 -154.65,0 -280,35.82 -280,80 0,44.179 125.35,80 280,80 154.65,0 280,-35.821 280,-80 z"
         style="fill:#4d4d4d;fill-opacity:1;fill-rule:nonzero;stroke:none"
         id="path152"
         inkscape:connector-curvature="0" /><path
         d="m 1317.07,1123.68 c -92.62,16.88 -146.95,51.84 -125.74,80.9 11.4,15.67 75.23,40.35 129.06,49.89 64.96,11.52 215,11.79 278.13,0.5 110.07,-19.64 164.33,-57.77 126.05,-88.59 -21.09,-16.99 -67.38,-32.89 -125.55,-43.09 -65.78,-11.56 -217.54,-11.32 -281.95,0.39 z"
         style="fill:#4d4d4d;fill-opacity:1;fill-rule:nonzero;stroke:none"
         id="path154"
         inkscape:connector-curvature="0" /><g
         id="g156"
         transform="scale(10,10)"><text
           transform="matrix(1,0,0,-1,123.617,94.8805)"
           id="text158"><tspan
             style="font-size:12.80000019px;font-variant:normal;writing-mode:lr-tb;fill:#000000;fill-opacity:1;fill-rule:nonzero;stroke:none;font-family:f-0;-inkscape-font-specification:f-0-0"
             x="0 4.2752905 11.392091 17.792091 20.646582 27.763382 37.017872"
             y="0"
             sodipodi:role="line"
             id="tspan160">reviews</tspan><tspan
             style="font-size:12.80000019px;font-variant:normal;writing-mode:lr-tb;fill:#000000;fill-opacity:1;fill-rule:nonzero;stroke:none;font-family:f-0;-inkscape-font-specification:f-0-0"
             x="-4.6374998 2.4793 9.6089907 13.1545 20.284191 27.400991 34.530682 40.930683"
             y="16"
             sodipodi:role="line"
             id="tspan162">database</tspan></text>
</g><path
         d="m 26.2891,1047.98 675,0 0,513.75 -675,0 0,-513.75 z"
         style="fill:none;stroke:#999999;stroke-width:7.86900997;stroke-linecap:butt;stroke-linejoin:miter;stroke-miterlimit:4;stroke-opacity:1;stroke-dasharray:none"
         id="path164"
         inkscape:connector-curvature="0" /><path
         d="m 730.82,1260.21 300.86,-130.55 77.62,-33.67"
         style="fill:#000000;fill-opacity:1;fill-rule:nonzero;stroke:none"
         id="path166"
         inkscape:connector-curvature="0" /><path
         d="m 730.82,1260.21 300.86,-130.55 77.62,-33.67"
         style="fill:none;stroke:#999999;stroke-width:12.18900013;stroke-linecap:butt;stroke-linejoin:miter;stroke-miterlimit:4;stroke-opacity:1;stroke-dasharray:none"
         id="path168"
         inkscape:connector-curvature="0" /><path
         d="m 1011.29,1197.47 112.93,-107.73 -155.822,8.91 c 34.142,19.88 51.332,59.84 42.892,98.82 z"
         style="fill:#000000;fill-opacity:1;fill-rule:evenodd;stroke:none"
         id="path170"
         inkscape:connector-curvature="0" /><path
         d="m 1011.29,1197.48 112.92,-107.74 -155.812,8.91 c 34.142,19.88 51.322,59.84 42.892,98.83 z"
         style="fill:none;stroke:#000000;stroke-width:8.37992954;stroke-linecap:butt;stroke-linejoin:round;stroke-miterlimit:4;stroke-opacity:1;stroke-dasharray:none"
         id="path172"
         inkscape:connector-curvature="0" /><path
         d="m 1042.97,1090.95 c -44.181,2.62 -75.161,5.31 -76.45,6.6 -1.52,1.56 0.468,3.99 7,8.48 11.832,8.12 22.031,20.7 28.98,35.7 4.77,10.31 5.66,15.16 6.33,34.81 0.58,17.42 1.4,22.69 3.4,22.22 4.41,-1.01 114.33,-107.03 113.55,-109.45 -1.09,-3.28 -1.33,-3.24 -82.81,1.64 z"
         style="fill:#999999;fill-opacity:1;fill-rule:nonzero;stroke:none"
         id="path174"
         inkscape:connector-curvature="0" /><path
         d="m 1042.97,1090.95 c -44.181,2.61 -75.161,5.31 -76.45,6.6 -1.52,1.56 0.468,3.98 7,8.48 11.832,8.12 22.031,20.7 28.98,35.7 4.77,10.31 5.66,15.15 6.33,34.8 0.58,17.43 1.4,22.7 3.4,22.23 4.41,-1.02 114.33,-107.03 113.55,-109.45 -1.09,-3.28 -1.33,-3.25 -82.81,1.64 z"
         style="fill:none;stroke:#999999;stroke-width:3.07818007;stroke-linecap:butt;stroke-linejoin:miter;stroke-miterlimit:4;stroke-opacity:1;stroke-dasharray:none"
         id="path176"
         inkscape:connector-curvature="0" /><path
         d="m 754.84,491.648 300.86,130.551 77.58,33.672"
         style="fill:#000000;fill-opacity:1;fill-rule:nonzero;stroke:none"
         id="path178"
         inkscape:connector-curvature="0" /><path
         d="m 754.84,491.652 300.86,130.551 77.58,33.668"
         style="fill:none;stroke:#000000;stroke-width:12.18900013;stroke-linecap:butt;stroke-linejoin:miter;stroke-miterlimit:4;stroke-opacity:1;stroke-dasharray:none"
         id="path180"
         inkscape:connector-curvature="0" /><path
         d="m 992.23,653.609 155.82,8.903 -112.93,-107.731 c 8.83,38.508 -8.64,78.36 -42.89,98.828 z"
         style="fill:#000000;fill-opacity:1;fill-rule:evenodd;stroke:none"
         id="path182"
         inkscape:connector-curvature="0" /><path
         d="m 992.23,653.602 155.82,8.914 -112.93,-107.743 c 8.83,38.52 -8.64,78.364 -42.89,98.829 z"
         style="fill:none;stroke:#000000;stroke-width:8.37992954;stroke-linecap:butt;stroke-linejoin:round;stroke-miterlimit:4;stroke-opacity:1;stroke-dasharray:none"
         id="path184"
         inkscape:connector-curvature="0" /><path
         d="m 2163.67,1035.44 c 12.78,24.3 12.78,70.71 0,94.96 -4.96,9.46 -7.54,17.19 -5.7,17.19 4.41,0 167.07,-60.08 169.65,-62.66 1.09,-1.09 1.25,-2.69 0.31,-3.55 -1.99,-1.84 -168.28,-63.09 -171.25,-63.09 -1.13,0 2.03,7.74 6.99,17.15 z"
         style="fill:#999999;fill-opacity:1;fill-rule:nonzero;stroke:none"
         id="path186"
         inkscape:connector-curvature="0" /><path
         d="m 2163.67,1035.44 c 12.78,24.3 12.78,70.7 0,94.96 -4.96,9.45 -7.54,17.19 -5.7,17.19 4.41,0 167.07,-60.08 169.65,-62.66 1.09,-1.09 1.25,-2.69 0.31,-3.55 -1.99,-1.84 -168.28,-63.09 -171.25,-63.09 -1.13,0 2.03,7.74 6.99,17.15 z"
         style="fill:none;stroke:#999999;stroke-width:6.15636015;stroke-linecap:butt;stroke-linejoin:miter;stroke-miterlimit:4;stroke-opacity:1;stroke-dasharray:none"
         id="path188"
         inkscape:connector-curvature="0" /></g></g></svg>